<svg width="24" height="24" viewBox="0 0 24 24" fill="none" xmlns="http://www.w3.org/2000/svg">
<path d="M15.4286 6.44444H8.57143M15.4286 10.8889H8.57143M15.4286 15.3333H10.8571M4 2H20V22L18.8206 21.0178C18.4063 20.6726 17.8787 20.4829 17.3331 20.4829C16.7876 20.4829 16.26 20.6726 15.8457 21.0178L14.6663 22L13.488 21.0178C13.0737 20.6723 12.5458 20.4824 12 20.4824C11.4542 20.4824 10.9263 20.6723 10.512 21.0178L9.33371 22L8.15429 21.0178C7.74003 20.6726 7.21244 20.4829 6.66686 20.4829C6.12127 20.4829 5.59369 20.6726 5.17943 21.0178L4 22V2Z" stroke="#636363" stroke-width="1.5" stroke-linecap="round" stroke-linejoin="round"/>
</svg>
