<svg width="24" height="24" viewBox="0 0 24 24" fill="none" xmlns="http://www.w3.org/2000/svg">
<path d="M14.788 6.375C14.788 3.27281 12.2652 0.75 9.16305 0.75C6.06086 0.75 3.53805 3.27281 3.53805 6.375C3.53805 9.47719 6.06086 12 9.16305 12C12.2652 12 14.788 9.47719 14.788 6.375ZM9.16305 10.125C7.09492 10.125 5.41305 8.44313 5.41305 6.375C5.41305 4.30687 7.09492 2.625 9.16305 2.625C11.2312 2.625 12.913 4.30687 12.913 6.375C12.913 8.44313 11.2312 10.125 9.16305 10.125ZM9.15555 14.7544C9.2193 15.2681 8.85555 15.7359 8.34086 15.8006C5.06805 16.2094 2.59961 19.0078 2.59961 22.3125C2.59961 22.83 2.17961 23.25 1.66211 23.25C1.14461 23.25 0.724609 22.83 0.724609 22.3125C0.724609 18.0647 3.89898 14.4656 8.10836 13.9406C8.61648 13.8759 9.08992 14.2406 9.15461 14.7553L9.15555 14.7544ZM22.003 18.6872L21.0899 18.1603C21.2455 17.6944 21.3505 17.205 21.3505 16.6866C21.3505 16.1681 21.2465 15.6788 21.0899 15.2128L22.003 14.6859C22.4512 14.4272 22.6049 13.8534 22.3462 13.4053C22.0865 12.9562 21.5146 12.8016 21.0655 13.0622L20.1534 13.5891C19.4924 12.8447 18.6121 12.3 17.6005 12.0947V11.0625C17.6005 10.545 17.1805 10.125 16.663 10.125C16.1455 10.125 15.7255 10.545 15.7255 11.0625V12.0947C14.714 12.3009 13.8337 12.8456 13.1727 13.5891L12.2605 13.0622C11.8105 12.8025 11.2387 12.9562 10.9799 13.4053C10.7212 13.8544 10.8749 14.4272 11.323 14.6859L12.2362 15.2128C12.0805 15.6788 11.9755 16.1681 11.9755 16.6866C11.9755 17.205 12.0796 17.6944 12.2362 18.1603L11.323 18.6872C10.8749 18.9459 10.7212 19.5197 10.9799 19.9678C11.1543 20.2688 11.4684 20.4366 11.7927 20.4366C11.9512 20.4366 12.1124 20.3962 12.2605 20.3109L13.1727 19.7841C13.8337 20.5284 14.714 21.0731 15.7255 21.2784V22.3106C15.7255 22.8281 16.1455 23.2481 16.663 23.2481C17.1805 23.2481 17.6005 22.8281 17.6005 22.3106V21.2784C18.6121 21.0722 19.4924 20.5275 20.1534 19.7841L21.0655 20.3109C21.2137 20.3962 21.3749 20.4366 21.5334 20.4366C21.8577 20.4366 22.1727 20.2688 22.3462 19.9678C22.6049 19.5188 22.4512 18.9459 22.003 18.6872ZM16.663 19.4991C15.1124 19.4991 13.8505 18.2372 13.8505 16.6866C13.8505 15.1359 15.1124 13.8741 16.663 13.8741C18.2137 13.8741 19.4755 15.1359 19.4755 16.6866C19.4755 18.2372 18.2137 19.4991 16.663 19.4991Z" fill="#636363"/>
</svg>
