<svg width="14" height="14" viewBox="0 0 14 14" fill="none" xmlns="http://www.w3.org/2000/svg">
<g clip-path="url(#clip0_1132_4252)">
<path d="M12.7794 5.18C12.5241 5.14292 12.2805 5.04873 12.0666 4.90443C11.8528 4.76014 11.6743 4.56946 11.5443 4.3466C11.4144 4.12375 11.3364 3.87445 11.3162 3.61728C11.296 3.3601 11.334 3.10168 11.4275 2.86125C11.4869 2.70407 11.4957 2.53223 11.4525 2.36982C11.4094 2.20741 11.3165 2.06258 11.1869 1.95563C10.6146 1.47511 9.9633 1.09762 9.26188 0.840003C9.10216 0.78067 8.92779 0.773257 8.76361 0.818819C8.59943 0.864381 8.45381 0.960595 8.34751 1.09375C8.18751 1.29835 7.98301 1.46383 7.74954 1.57763C7.51607 1.69144 7.25974 1.75058 7.00001 1.75058C6.74028 1.75058 6.48395 1.69144 6.25048 1.57763C6.01701 1.46383 5.81251 1.29835 5.65251 1.09375C5.54621 0.960595 5.40059 0.864381 5.23641 0.818819C5.07223 0.773257 4.89786 0.78067 4.73813 0.840003C4.09049 1.07785 3.48495 1.41754 2.94438 1.84625C2.80812 1.95412 2.70997 2.10279 2.66431 2.27047C2.61865 2.43816 2.62788 2.61606 2.69063 2.77813C2.79159 3.02492 2.8333 3.29193 2.81242 3.55775C2.79154 3.82357 2.70866 4.0808 2.57041 4.3088C2.43216 4.5368 2.2424 4.72923 2.01636 4.87065C1.79031 5.01207 1.53426 5.09854 1.26876 5.12313C1.09639 5.14156 0.934488 5.21484 0.806896 5.3322C0.679303 5.44955 0.592761 5.60477 0.560009 5.775C0.478546 6.17825 0.437509 6.58861 0.437509 7C0.436911 7.34441 0.464713 7.68829 0.520634 8.02813C0.548466 8.20381 0.633399 8.36544 0.762301 8.48802C0.891203 8.61059 1.0569 8.68729 1.23376 8.70625C1.50509 8.73172 1.76638 8.8218 1.99576 8.96897C2.22513 9.11615 2.41591 9.31612 2.55214 9.55216C2.68836 9.78819 2.76606 10.0534 2.77874 10.3257C2.79142 10.5979 2.73871 10.8692 2.62501 11.1169C2.5506 11.278 2.53215 11.4593 2.57257 11.6321C2.61299 11.8049 2.70998 11.9592 2.84813 12.0706C3.41693 12.5424 4.06201 12.9138 4.75563 13.1688C4.84433 13.1995 4.9374 13.2157 5.03126 13.2169C5.15996 13.2166 5.28672 13.1855 5.4009 13.1261C5.51508 13.0667 5.61337 12.9808 5.68751 12.8756C5.84344 12.6484 6.05246 12.4627 6.29644 12.3347C6.54041 12.2066 6.81196 12.14 7.08751 12.1406C7.3545 12.141 7.61771 12.2036 7.85621 12.3236C8.0947 12.4436 8.30188 12.6177 8.46126 12.8319C8.56727 12.9744 8.71743 13.0778 8.88835 13.1261C9.05928 13.1744 9.24137 13.1647 9.40626 13.0988C10.0405 12.8435 10.631 12.4907 11.1563 12.0531C11.2882 11.944 11.3822 11.7959 11.4246 11.63C11.4671 11.4641 11.4558 11.2891 11.3925 11.13C11.2896 10.8864 11.2447 10.6222 11.2614 10.3583C11.2782 10.0944 11.356 9.83793 11.4888 9.60924C11.6216 9.38056 11.8057 9.18587 12.0267 9.04055C12.2476 8.89522 12.4993 8.80325 12.7619 8.77188C12.9322 8.74833 13.0905 8.67119 13.214 8.55163C13.3375 8.43207 13.4197 8.2763 13.4488 8.10688C13.519 7.74196 13.5571 7.37158 13.5625 7C13.5626 6.60807 13.526 6.21698 13.4531 5.83188C13.4236 5.6662 13.3426 5.51404 13.2216 5.39701C13.1007 5.27999 12.9459 5.20406 12.7794 5.18ZM9.18751 7C9.18751 7.43265 9.05921 7.85558 8.81885 8.21531C8.57848 8.57505 8.23684 8.85542 7.83713 9.02099C7.43742 9.18656 6.99758 9.22988 6.57325 9.14547C6.14892 9.06107 5.75914 8.85273 5.45321 8.5468C5.14729 8.24087 4.93895 7.8511 4.85454 7.42676C4.77014 7.00243 4.81346 6.5626 4.97902 6.16288C5.14459 5.76317 5.42497 5.42153 5.7847 5.18116C6.14443 4.9408 6.56736 4.8125 7.00001 4.8125C7.58017 4.8125 8.13657 5.04297 8.5468 5.45321C8.95704 5.86344 9.18751 6.41984 9.18751 7Z" fill="#29476E"/>
</g>
<defs>
<clipPath id="clip0_1132_4252">
<rect width="14" height="14" fill="white"/>
</clipPath>
</defs>
</svg>
