<svg width="14" height="14" viewBox="0 0 14 14" fill="none" xmlns="http://www.w3.org/2000/svg">
<path d="M7.00027 0.279999C5.09627 0.279999 3.58427 1.792 3.58427 3.696V5.208C2.74427 5.208 2.07227 5.936 2.07227 6.776V12.152C2.07227 12.992 2.80027 13.72 3.64027 13.72H10.3603C11.2003 13.72 11.9283 12.992 11.9283 12.152V6.776C11.9283 5.936 11.2563 5.264 10.4163 5.208V3.696C10.4163 1.792 8.90427 0.279999 7.00027 0.279999ZM7.95227 11.088C7.95227 11.2 7.95227 11.256 7.89627 11.368C7.84027 11.424 7.72827 11.48 7.67227 11.48H6.32827C6.21627 11.48 6.16027 11.424 6.10427 11.368C6.04827 11.312 5.99227 11.2 6.04827 11.088L6.27227 9.632C5.99227 9.408 5.82427 9.072 5.82427 8.736C5.82427 8.064 6.32827 7.56 7.00027 7.56C7.61627 7.56 8.17627 8.064 8.17627 8.736C8.17627 9.072 8.00827 9.408 7.72827 9.632L7.95227 11.088ZM9.29627 5.208H4.70427V3.696C4.70427 2.408 5.71227 1.4 7.00027 1.4C8.28827 1.4 9.29627 2.408 9.29627 3.696V5.208Z" fill="#29476E"/>
</svg>
