<svg width="28" height="28" viewBox="0 0 28 28" fill="none" xmlns="http://www.w3.org/2000/svg">
<path d="M13.9996 1.74994C12.8373 1.74995 11.7277 1.98233 10.7191 2.40341C7.66692 3.67772 5.58841 6.63651 5.57721 10.0985C5.57105 12.0016 5.5422 13.6622 5.09278 16.0037C4.44588 19.0364 3.28377 19.9184 1.88264 21.9926C1.53903 22.5013 1.90289 23.1874 2.5166 23.1874H10.4096C10.6709 24.9 12.178 26.2499 13.9965 26.2499C15.8151 26.2499 17.3066 24.929 17.5895 23.1874H25.4825C26.0963 23.1874 26.4621 22.4999 26.1165 21.9926C24.9374 20.2624 23.9996 19.4178 23.325 17.5185C22.7844 15.9968 22.4219 13.851 22.4219 10.0985C22.4219 6.63649 20.3054 3.66655 17.28 2.40341C16.2714 1.98237 15.1619 1.74993 13.9996 1.74994ZM13.9996 3.28119C14.9589 3.28118 15.866 3.4707 16.6909 3.81503C19.2055 4.86492 20.9132 7.36045 20.8908 10.0985C20.8763 11.8441 21.0216 14.4236 21.3603 16.1084C21.7824 18.2084 22.451 19.727 23.9843 21.6562H4.01625C5.02765 20.3097 6.01294 19.0335 6.59095 16.3237C7.0277 14.2282 7.10828 12.0976 7.10828 10.0985C7.10828 7.25889 8.83349 4.84825 11.3082 3.81503C12.133 3.47067 13.0402 3.2812 13.9996 3.28119ZM15.3138 6.74594C15.7681 6.94483 16.1772 7.23423 16.5234 7.59381C16.8696 7.95339 17.1482 8.38118 17.3427 8.86038C17.719 9.82502 19.1634 9.23682 18.7602 8.28317C18.4923 7.62325 18.1071 7.03095 17.6253 6.53061C17.1436 6.03027 16.5664 5.62013 15.9238 5.33881C14.9801 4.94681 14.377 6.30431 15.3138 6.74594ZM11.9751 23.1874H16.0225C15.7685 24.0878 14.9481 24.7187 13.9965 24.7187C13.045 24.7187 12.2236 24.0731 11.9751 23.1874Z" fill="#636363"/>
</svg>
