<svg width="28" height="28" viewBox="0 0 28 28" fill="none" xmlns="http://www.w3.org/2000/svg">
<path d="M24.1192 11.5743H24.0499V9.87624C24.0499 4.42175 19.6282 0 14.1737 0C8.7191 0 4.29742 4.42175 4.29742 9.87624V11.5743H3.8816C2.35684 11.5743 1.17864 12.9257 1.17864 14.4852V18.8168C1.14023 20.3283 2.33442 21.5847 3.84585 21.6231C3.85779 21.6234 3.86966 21.6236 3.8816 21.6237H6.44594C6.80916 21.6067 7.0898 21.2983 7.07268 20.9351C7.07209 20.922 7.07109 20.909 7.0697 20.896V12.4059C7.0697 11.9901 6.82714 11.5742 6.44594 11.5742H5.68356V9.87617C5.68356 5.18725 9.48473 1.38607 14.1737 1.38607C18.8626 1.38607 22.6637 5.18725 22.6637 9.87617V11.5742H21.9014C21.5202 11.5742 21.2776 11.99 21.2776 12.4059V20.896C21.2389 21.2575 21.5007 21.582 21.8622 21.6207C21.8752 21.6221 21.8883 21.6231 21.9014 21.6237H22.6984L22.6291 21.7276C21.5892 23.1096 19.9575 23.919 18.2281 23.9108C17.8495 22.0543 16.0375 20.8562 14.181 21.2349C12.5934 21.5586 11.4488 22.949 11.436 24.5692C11.455 26.4695 13.001 28 14.9013 27.9999C15.8421 27.9846 16.7388 27.5986 17.3964 26.9256C17.84 26.4713 18.1308 25.8897 18.2281 25.2622C20.3938 25.2704 22.4363 24.2556 23.7379 22.5246L24.3964 21.5543C25.8865 21.4504 26.8221 20.5147 26.8221 19.1632V14.8315C26.8222 13.3416 25.7133 11.5743 24.1192 11.5743ZM5.68356 20.2376H3.8816C3.1354 20.2194 2.54521 19.5998 2.56338 18.8536C2.56371 18.8414 2.56418 18.8291 2.56478 18.8168V14.4851C2.56478 13.6881 3.11922 12.9603 3.8816 12.9603H5.68356V20.2376ZM16.3915 25.9554C16.0074 26.3718 15.4679 26.6103 14.9014 26.6139C13.774 26.596 12.859 25.6963 12.8222 24.5693C12.8217 23.4401 13.7367 22.5244 14.8659 22.5239C15.9951 22.5234 16.9108 23.4384 16.9113 24.5676C16.9113 24.5681 16.9113 24.5687 16.9113 24.5693C16.9402 25.0838 16.7515 25.5868 16.3915 25.9554ZM25.436 19.1633C25.436 20.099 24.535 20.2376 24.1192 20.2376H22.6637V12.9604H24.1192C24.8816 12.9604 25.436 14.0347 25.436 14.8317V19.1633Z" fill="#636363"/>
</svg>
