<svg width="24" height="24" viewBox="0 0 24 24" fill="none" xmlns="http://www.w3.org/2000/svg">
<path d="M22.7491 12.7617L20.3185 10.331C20.1573 10.1698 19.9387 10.0793 19.7108 10.0793C19.4828 10.0793 19.2642 10.1698 19.1031 10.331L11.6754 17.7587C11.0736 18.3605 10.6673 19.1198 10.5004 19.9543L10.0968 21.9721C10.0404 22.2539 10.1286 22.5451 10.3318 22.7483C10.4946 22.9111 10.7138 23 10.9395 23C10.9955 23 11.052 22.9945 11.108 22.9833L13.1258 22.5797H13.1258C13.9604 22.4128 14.7196 22.0065 15.3215 21.4047L22.7491 13.977C23.0847 13.6414 23.0847 13.0973 22.7491 12.7617ZM14.1061 20.1893C13.745 20.5504 13.2894 20.7943 12.7887 20.8944L12.035 21.0451L12.1857 20.2913C12.2859 19.7906 12.5297 19.335 12.8908 18.9739L19.7108 12.1539L20.9261 13.3693L14.1061 20.1893Z" fill="white"/>
<path d="M7.43366 21.2812H3.57812C3.10426 21.2812 2.71875 20.8957 2.71875 20.4218V3.57812C2.71875 3.10426 3.10426 2.71875 3.57812 2.71875H11.3125V5.29687C11.3125 6.71844 12.469 7.87499 13.8906 7.87499H16.4687V8.45945C16.4687 8.93408 16.8535 9.31882 17.3281 9.31882C17.8027 9.31882 18.1875 8.93408 18.1875 8.45945V7.01557C18.1875 6.78294 18.0893 6.55989 17.9353 6.40752L12.7796 1.25171C12.621 1.09316 12.3989 1 12.1719 1H3.57812C2.15654 1 1 2.15654 1 3.57812V20.4218C1 21.8434 2.15654 23 3.57812 23H7.43366C7.90829 23 8.29303 22.6152 8.29303 22.1406C8.29303 21.666 7.90824 21.2812 7.43366 21.2812ZM13.8906 6.15624C13.4167 6.15624 13.0312 5.77073 13.0312 5.29687V3.93407L15.2534 6.15624H13.8906Z" fill="white"/>
<path d="M14.75 10.1094C14.75 9.63474 14.3652 9.25 13.8906 9.25H5.29687C4.82224 9.25 4.4375 9.63474 4.4375 10.1094C4.4375 10.584 4.82224 10.9687 5.29687 10.9687H13.8906C14.3652 10.9687 14.75 10.584 14.75 10.1094Z" fill="white"/>
<path d="M5.29687 12.6875C4.82224 12.6875 4.4375 13.0722 4.4375 13.5469C4.4375 14.0215 4.82224 14.4062 5.29687 14.4062H12.2407C12.7153 14.4062 13.1001 14.0215 13.1001 13.5469C13.1001 13.0722 12.7153 12.6875 12.2407 12.6875H5.29687Z" fill="white"/>
<path d="M8.99098 16.125H5.29687C4.82224 16.125 4.4375 16.5097 4.4375 16.9844C4.4375 17.459 4.82224 17.8437 5.29687 17.8437H8.99098C9.46561 17.8437 9.85035 17.459 9.85035 16.9844C9.85035 16.5097 9.46561 16.125 8.99098 16.125Z" fill="white"/>
</svg>
