<svg width="20" height="20" viewBox="0 0 20 20" fill="none" xmlns="http://www.w3.org/2000/svg">
<path d="M13.5254 14.5156V15.8438C13.5254 17.3084 12.3338 18.5 10.8691 18.5H4.19531C2.73061 18.5 1.53906 17.3084 1.53906 15.8438V4.15625C1.53906 2.69155 2.73061 1.5 4.19531 1.5H10.8691C12.3338 1.5 13.5254 2.69155 13.5254 4.15625V5.48438C13.5254 5.85117 13.2281 6.14844 12.8613 6.14844C12.4945 6.14844 12.1973 5.85117 12.1973 5.48438V4.15625C12.1973 3.42397 11.6014 2.82812 10.8691 2.82812H4.19531C3.46303 2.82812 2.86719 3.42397 2.86719 4.15625V15.8438C2.86719 16.576 3.46303 17.1719 4.19531 17.1719H10.8691C11.6014 17.1719 12.1973 16.576 12.1973 15.8438V14.5156C12.1973 14.1488 12.4945 13.8516 12.8613 13.8516C13.2281 13.8516 13.5254 14.1488 13.5254 14.5156ZM18.0528 8.85929L16.5658 7.37228C16.3064 7.11288 15.8859 7.11288 15.6267 7.37228C15.3673 7.63155 15.3673 8.05204 15.6267 8.31131L16.6844 9.36914H8.71094C8.34415 9.36914 8.04688 9.66641 8.04688 10.0332C8.04688 10.4 8.34415 10.6973 8.71094 10.6973H16.6844L15.6267 11.7551C15.3673 12.0144 15.3673 12.4349 15.6267 12.6941C15.7564 12.8238 15.9263 12.8887 16.0962 12.8887C16.2662 12.8887 16.4361 12.8238 16.5658 12.6941L18.0528 11.2071C18.7001 10.5598 18.7001 9.50662 18.0528 8.85929Z" fill="#161616"/>
</svg>
