<svg width="87" height="87" viewBox="0 0 87 87" fill="none" xmlns="http://www.w3.org/2000/svg">
<g clip-path="url(#clip0_1132_4348)">
<path d="M55.2797 65.2506C55.2797 71.2462 50.4006 76.1253 44.405 76.1253H34.4371C32.9324 76.1253 31.5843 75.1974 31.0513 73.7909L4.77069 4.91832C4.34324 3.80523 4.49524 2.55475 5.16959 1.57242C5.84727 0.590092 6.96367 0.00268555 8.15641 0.00268555H44.405C50.4006 0.00268555 55.2797 4.88181 55.2797 10.8773V65.2506Z" fill="#E3576E"/>
<path d="M33.5301 14.502V79.7499C33.5301 82.2516 31.5004 84.2813 28.9994 84.2813C28.4916 84.2813 28.0204 84.2089 27.5491 84.0636L5.79981 76.8142C4.02366 76.1976 2.71875 74.4938 2.71875 72.5006V7.25265C2.71875 4.75103 4.74846 2.72132 7.25008 2.72132C7.75717 2.72132 8.22843 2.79367 8.69968 2.93903L30.449 10.1884C32.2252 10.805 33.5301 12.5088 33.5301 14.502Z" fill="#EC8C9B"/>
<path d="M26.6902 86.6409L4.91165 79.3803C1.97196 78.3654 0 75.5996 0 72.5007V7.2527C0 2.47844 4.6435 -1.1502 9.55913 0.361789L31.337 7.6224C34.2767 8.63726 36.2486 11.403 36.2486 14.502V79.75C36.2486 83.7483 32.9977 87 28.9993 87C28.2234 87 27.4873 86.8878 26.6902 86.6409ZM5.43733 7.2527V72.5007C5.43733 73.2726 5.95239 73.9901 6.6586 74.237L28.3469 81.4684C29.525 81.8235 30.8113 80.9792 30.8113 79.75V14.502C30.8113 13.7301 30.2969 13.0126 29.59 12.7657L7.89846 5.53827C7.68142 5.46924 7.47832 5.44004 7.24999 5.44004C6.24908 5.44004 5.43733 6.25179 5.43733 7.2527Z" fill="#EC8C9B"/>
<path d="M84.2784 40.7827H49.8417C48.341 40.7827 47.123 39.5647 47.123 38.064C47.123 36.5633 48.341 35.3453 49.8417 35.3453H84.2784C85.7791 35.3453 86.997 36.5633 86.997 38.064C86.997 39.5647 85.7791 40.7827 84.2784 40.7827Z" fill="#161616"/>
<path d="M70.6848 54.376C69.9885 54.376 69.2929 54.1112 68.7633 53.5788C67.7013 52.5162 67.7013 50.7945 68.7633 49.7325L80.4358 38.0607L68.7633 26.3882C67.7013 25.3262 67.7013 23.6045 68.7633 22.5425C69.8259 21.4799 71.5477 21.4799 72.6096 22.5425L86.203 36.1359C87.2649 37.1978 87.2649 38.9196 86.203 39.9815L72.6096 53.5749C72.0767 54.1112 71.3811 54.376 70.6848 54.376Z" fill="#161616"/>
<path d="M28.9993 87C28.2234 87 27.4873 86.8911 26.7519 86.6628L4.93687 79.3949C1.96864 78.3581 0 75.5923 0 72.5006V7.25267C0 3.25432 3.25165 0.00267792 7.24999 0.00267792C8.02524 0.00267792 8.76132 0.111531 9.49741 0.339856L31.3118 7.60777C34.2807 8.64453 36.2486 11.4103 36.2486 14.502V79.75C36.2486 83.7483 32.9977 87 28.9993 87ZM7.24999 5.44001C6.25306 5.44001 5.43733 6.25574 5.43733 7.25267V72.5006C5.43733 73.2726 5.95571 73.9901 6.69511 74.2476L28.4079 81.483C28.5639 81.5334 28.767 81.5626 28.9993 81.5626C29.9962 81.5626 30.8113 80.7469 30.8113 79.75V14.502C30.8113 13.7301 30.2929 13.0126 29.5535 12.755L7.84072 5.51966C7.68474 5.46921 7.48164 5.44001 7.24999 5.44001Z" fill="#161616"/>
<path d="M55.2792 29.002C53.7785 29.002 52.5606 27.784 52.5606 26.2833V9.97133C52.5606 7.47369 50.5275 5.44 48.0299 5.44H7.24991C5.74921 5.44 4.53125 4.22205 4.53125 2.72134C4.53125 1.22063 5.74921 0.0026741 7.24991 0.0026741H48.0299C53.5289 0.0026741 57.9979 4.47228 57.9979 9.97133V26.2833C57.9979 27.784 56.7799 29.002 55.2792 29.002Z" fill="#161616"/>
<path d="M48.0312 76.1253H33.5312C32.0305 76.1253 30.8125 74.9073 30.8125 73.4066C30.8125 71.9059 32.0305 70.688 33.5312 70.688H48.0312C50.5288 70.688 52.5618 68.6543 52.5618 66.1566V49.8446C52.5618 48.3439 53.7798 47.126 55.2805 47.126C56.7812 47.126 57.9991 48.3439 57.9991 49.8446V66.1566C57.9991 71.6557 53.5302 76.1253 48.0312 76.1253Z" fill="#161616"/>
</g>
<defs>
<clipPath id="clip0_1132_4348">
<rect width="87" height="87" fill="white"/>
</clipPath>
</defs>
</svg>
