<svg width="20" height="20" viewBox="0 0 20 20" fill="none" xmlns="http://www.w3.org/2000/svg">
<path d="M15.2313 7.54469V5.81699C15.2313 2.93258 12.8846 0.585938 10.0002 0.585938C7.11582 0.585938 4.76918 2.93258 4.76918 5.81699V7.54469C3.54625 7.59375 2.56641 8.60344 2.56641 9.83816V17.1182C2.56641 18.3842 3.59629 19.4141 4.86223 19.4141H15.1382C16.4041 19.4141 17.434 18.3841 17.434 17.1182V9.83816C17.4341 8.60344 16.4542 7.59375 15.2313 7.54469ZM10.0002 1.83594C12.1954 1.83594 13.9813 3.62184 13.9813 5.81699V7.5423H6.01918V5.81699C6.01918 3.62184 7.80508 1.83594 10.0002 1.83594ZM16.1841 17.1182C16.1841 17.6949 15.7149 18.1641 15.1382 18.1641H4.86227C4.28559 18.1641 3.81645 17.6949 3.81645 17.1182V9.83816C3.81645 9.26148 4.28563 8.79234 4.86227 8.79234H15.1382C15.7149 8.79234 16.184 9.26148 16.184 9.83816V17.1182H16.1841ZM10.6252 12.1109V14.8455C10.6252 15.1906 10.3454 15.4705 10.0002 15.4705C9.65504 15.4705 9.37523 15.1906 9.37523 14.8455V12.1109C9.37523 11.7658 9.65504 11.4859 10.0002 11.4859C10.3454 11.4859 10.6252 11.7657 10.6252 12.1109Z" fill="#161616"/>
</svg>
