<svg width="14" height="14" viewBox="0 0 14 14" fill="none" xmlns="http://www.w3.org/2000/svg">
<path d="M8.3518 2.33535L2.01097 8.64702C1.87782 8.77767 1.78473 8.94362 1.74264 9.12535L1.0718 11.797C1.04408 11.9044 1.04141 12.0166 1.06398 12.1252C1.08656 12.2337 1.13377 12.3356 1.20199 12.423C1.27021 12.5104 1.35759 12.5809 1.45741 12.6291C1.55722 12.6774 1.66678 12.702 1.77764 12.7012C1.83778 12.7069 1.89833 12.7069 1.95847 12.7012L4.63014 12.0303C4.80877 11.9847 4.97192 11.892 5.10264 11.762L11.4435 5.39785L8.3518 2.33535Z" fill="#29476E"/>
<path d="M12.8324 1.75136L12.004 0.923028C11.6982 0.631661 11.2919 0.469139 10.8695 0.469139C10.447 0.469139 10.0408 0.631661 9.73487 0.923028L8.9707 1.68719L12.0624 4.77886L12.8324 4.01469C13.1316 3.71407 13.2996 3.30718 13.2996 2.88303C13.2996 2.45887 13.1316 2.05198 12.8324 1.75136Z" fill="#29476E"/>
</svg>
